<svg width="24" height="24" viewBox="0 0 24 24" fill="none" xmlns="http://www.w3.org/2000/svg">
<g clip-path="url(#clip0_103_146)">
<path d="M19 0H5C2.24 0 0 2.24 0 5V15C0 17.76 2.24 20 5 20H6.92L10.67 23.16C11.05 23.5 11.53 23.67 12.01 23.67C12.49 23.67 12.94 23.51 13.3 23.19L17.15 20.01H19C21.76 20.01 24 17.77 24 15.01V5C24 2.24 21.76 0 19 0ZM13.38 15H13C13 15.55 12.55 16 12 16C11.45 16 11 15.55 11 15H10.73C9.66 15 8.67 14.43 8.13 13.5C7.85 13.02 8.02 12.41 8.49 12.13C8.97 11.85 9.58 12.02 9.86 12.49C10.04 12.8 10.37 12.99 10.73 12.99H13.37C13.71 12.99 13.99 12.71 13.99 12.37C13.99 12.06 13.77 11.8 13.47 11.75L10.18 11.2C8.91 10.99 7.99 9.9 7.99 8.61C7.99 7.16 9.17 5.99 10.61 5.99H10.99C10.99 5.44 11.44 4.99 11.99 4.99C12.54 4.99 12.99 5.44 12.99 5.99H13.26C14.33 5.99 15.32 6.56 15.86 7.49C16.14 7.97 15.97 8.58 15.5 8.86C15.02 9.14 14.41 8.97 14.13 8.5C13.95 8.19 13.62 8 13.26 8H10.62C10.28 8 10 8.28 10 8.62C10 8.93 10.22 9.19 10.52 9.24L13.8 9.79C15.07 10 15.99 11.09 15.99 12.38C15.99 13.83 14.81 15 13.37 15H13.38Z" fill="url(#paint0_linear_103_146)"/>
</g>
<defs>
<linearGradient id="paint0_linear_103_146" x1="12" y1="0" x2="12" y2="23.67" gradientUnits="userSpaceOnUse">
<stop stop-color="#46C985"/>
<stop offset="1" stop-color="#4CB182"/>
</linearGradient>
<clipPath id="clip0_103_146">
<rect width="24" height="24" fill="white"/>
</clipPath>
</defs>
</svg>
