<svg width="24" height="24" viewBox="0 0 24 24" fill="none" xmlns="http://www.w3.org/2000/svg">
<g clip-path="url(#clip0_130_523)">
<path d="M5.00013 4C5.00013 3.447 5.44813 3 6.00013 3H8.00012V1C8.00012 0.447 8.44812 0 9.00012 0C9.55212 0 10.0001 0.447 10.0001 1V3H12.0001C12.5521 3 13.0001 3.447 13.0001 4C13.0001 4.553 12.5521 5 12.0001 5H10.0001V7C10.0001 7.553 9.55212 8 9.00012 8C8.44812 8 8.00012 7.553 8.00012 7V5H6.00013C5.44813 5 5.00013 4.553 5.00013 4ZM24.0001 13V16C24.0001 16.552 23.5531 17 23.0001 17H22.4081C21.6021 18.98 20.0221 20.606 17.9701 21.427C17.7621 22.88 16.5101 24 15.0001 24C13.6961 24 12.5841 23.164 12.1711 22H9.82812C9.41512 23.164 8.30313 24 6.99913 24C5.34513 24 3.99913 22.654 3.99913 21V20.921C1.36613 19.403 -0.181875 16.545 0.0171253 13.47C0.0981253 12.218 0.479125 11.047 1.08913 10.02C0.501125 9.222 0.138125 8.249 0.00712533 7.115C-0.0558747 6.566 0.337125 6.07 0.885125 6.007C1.43813 5.94 1.93113 6.337 1.99313 6.885C2.05713 7.438 2.19713 7.929 2.40913 8.354C3.39313 7.4 4.62713 6.693 6.00013 6.314V7.001C6.00013 8.655 7.34612 10.001 9.00012 10.001C10.6541 10.001 12.0001 8.655 12.0001 7.001V6.001H14.5001C14.8421 4.604 15.8751 3.413 17.2021 3.036C17.7911 2.868 18.3781 3.327 18.3781 3.94V6.849C20.5021 7.871 22.1411 9.736 22.7431 12.002H23.0001C23.5531 12.002 24.0001 12.45 24.0001 13.002V13ZM19.0001 12.5C19.0001 11.672 18.3281 11 17.5001 11C16.6721 11 16.0001 11.672 16.0001 12.5C16.0001 13.328 16.6721 14 17.5001 14C18.3281 14 19.0001 13.328 19.0001 12.5Z" fill="#84868B"/>
</g>
<defs>
<clipPath id="clip0_130_523">
<rect width="24" height="24" fill="white"/>
</clipPath>
</defs>
</svg>
