<svg width="24" height="24" viewBox="0 0 24 24" fill="none" xmlns="http://www.w3.org/2000/svg">
<g clip-path="url(#clip0_92_13)">
<rect width="24" height="24" fill="#F1F4F9"/>
<path d="M16 2.172V1C16 0.447 15.552 0 15 0C14.448 0 14 0.447 14 1V2H12V1C12 0.447 11.552 0 11 0C10.448 0 10 0.447 10 1V2H8V1C8 0.447 7.552 0 7 0C6.448 0 6 0.447 6 1V2H4V1C4 0.447 3.552 0 3 0C2.448 0 2 0.447 2 1V2.172C0.836 2.585 0 3.696 0 5V19C0 21.757 2.243 24 5 24H13C15.757 24 18 21.757 18 19V5C18 3.696 17.164 2.585 16 2.172ZM10 17H5C4.448 17 4 16.553 4 16C4 15.447 4.448 15 5 15H10C10.552 15 11 15.447 11 16C11 16.553 10.552 17 10 17ZM13 13H5C4.448 13 4 12.553 4 12C4 11.447 4.448 11 5 11H13C13.552 11 14 11.447 14 12C14 12.553 13.552 13 13 13ZM13 9H5C4.448 9 4 8.553 4 8C4 7.447 4.448 7 5 7H13C13.552 7 14 7.447 14 8C14 8.553 13.552 9 13 9ZM22 24L20.879 22.879C20.316 22.316 20 21.553 20 20.758V2C20 0.895 20.895 0 22 0C23.105 0 24 0.895 24 2V20.757C24 21.553 23.684 22.316 23.121 22.878L22 24Z" fill="url(#paint0_linear_92_13)"/>
</g>
<defs>
<linearGradient id="paint0_linear_92_13" x1="12" y1="0" x2="12" y2="24" gradientUnits="userSpaceOnUse">
<stop stop-color="#FC8F8F"/>
<stop offset="1" stop-color="#E37E7E"/>
</linearGradient>
<clipPath id="clip0_92_13">
<rect width="24" height="24" fill="white"/>
</clipPath>
</defs>
</svg>
