<svg width="24" height="24" viewBox="0 0 24 24" fill="none" xmlns="http://www.w3.org/2000/svg">
<g clip-path="url(#clip0_130_525)">
<path d="M18 16C18 16.378 18.271 16.698 18.644 16.76L21.686 17.267C23.027 17.49 24.001 18.64 24.001 20C24.001 21.654 22.655 23 21.001 23V24H19.001V23C17.347 23 16.001 21.654 16.001 20H18.001C18.001 20.551 18.45 21 19.001 21H21.001C21.552 21 22.001 20.551 22.001 20C22.001 19.622 21.73 19.302 21.357 19.24L18.315 18.733C16.974 18.51 16 17.36 16 16C16 14.346 17.346 13 19 13V12H21V13C22.654 13 24 14.346 24 16H22C22 15.449 21.551 15 21 15H19C18.449 15 18 15.449 18 16ZM15 0H14V10H24V9C24 4.038 19.962 0 15 0ZM16.031 12H12V2H11C4.935 2 0 6.935 0 13C0 19.065 4.935 24 11 24C12.476 24 13.882 23.703 15.169 23.174C14.45 22.308 14 21.211 14 20V16C14 14.359 14.806 12.912 16.031 12Z" fill="#84868B"/>
</g>
<defs>
<clipPath id="clip0_130_525">
<rect width="24" height="24" fill="white"/>
</clipPath>
</defs>
</svg>
